<svg width="34" height="34" viewBox="0 0 34 34" fill="none" xmlns="http://www.w3.org/2000/svg">
<path d="M31.5123 24.387C30.6177 24.387 29.8619 24.9909 29.6298 25.8122H25.1902V24.8027H25.3546C26.0338 24.8027 26.5865 24.25 26.5865 23.5706V21.7869C26.5865 20.6662 26.325 19.144 24.064 18.864C22.0774 18.6179 21.3667 17.6044 20.6794 16.6241C19.9987 15.6533 19.2948 14.6494 17.5578 14.6494H14.7787C12.7581 14.6494 12.0926 15.7966 11.388 17.0112C11.1782 17.373 10.9611 17.7471 10.6928 18.13C10.4224 18.5157 10.085 18.7537 9.6309 18.879C8.32535 19.2394 7.41353 20.4351 7.41353 21.7868V23.5706C7.41353 23.6282 7.41891 23.6845 7.42661 23.7401H4.3702C4.13811 22.9187 3.3824 22.3149 2.48771 22.3149C1.40894 22.315 0.53125 23.1926 0.53125 24.2714C0.53125 25.3503 1.40894 26.2279 2.48771 26.2279C3.38234 26.2279 4.13804 25.6241 4.3702 24.8027H10.0633C10.1665 25.8741 10.9574 26.7468 11.9881 26.974V28.2268H8.87672C8.64457 27.4054 7.8888 26.8016 6.99417 26.8016C5.9154 26.8016 5.03778 27.6793 5.03778 28.758C5.03778 29.8368 5.9154 30.7144 6.99417 30.7144C7.8888 30.7144 8.64457 30.1106 8.87672 29.2893H12.5194C12.6603 29.2893 12.7954 29.2333 12.895 29.1337C12.9946 29.034 13.0506 28.8989 13.0506 28.758V26.974C14.0813 26.7469 14.8723 25.8741 14.9754 24.8027H16.1685V29.6254C16.1685 29.7663 16.2245 29.9014 16.3241 30.0011C16.4238 30.1007 16.5589 30.1567 16.6998 30.1567L22.9987 30.1567C23.2309 30.9781 23.9866 31.5819 24.8812 31.5819C25.96 31.5819 26.8377 30.7042 26.8377 29.6254C26.8377 28.5467 25.96 27.669 24.8812 27.669C23.9865 27.669 23.2308 28.2729 22.9987 29.0942L17.231 29.0942V24.8027H18.6954C18.8157 26.052 19.8711 27.0322 21.1514 27.0322C22.4317 27.0322 23.4871 26.052 23.6074 24.8027H24.1277V26.3434C24.1277 26.4843 24.1837 26.6195 24.2833 26.7191C24.3829 26.8187 24.5181 26.8747 24.659 26.8747H29.6298C29.862 27.6961 30.6177 28.2999 31.5123 28.2999C32.5911 28.2999 33.4688 27.4222 33.4688 26.3434C33.4688 25.2647 32.5911 24.387 31.5123 24.387ZM2.48771 25.1653C1.99478 25.1653 1.59375 24.7643 1.59375 24.2714C1.59375 23.7784 1.99478 23.3775 2.48771 23.3775C2.98064 23.3775 3.38161 23.7784 3.38161 24.2714C3.38161 24.7643 2.98064 25.1653 2.48771 25.1653ZM6.99411 29.6519C6.50117 29.6519 6.10021 29.2509 6.10021 28.758C6.10021 28.265 6.50117 27.864 6.99411 27.864C7.48704 27.864 7.88807 28.265 7.88807 28.758C7.88807 29.2509 7.48704 29.6519 6.99411 29.6519ZM24.8812 28.7315C25.3742 28.7315 25.7752 29.1325 25.7752 29.6254C25.7752 30.1184 25.3742 30.5194 24.8812 30.5194C24.3883 30.5194 23.9873 30.1184 23.9873 29.6254C23.9873 29.1325 24.3883 28.7315 24.8812 28.7315ZM19.8095 17.2342C20.1812 17.7643 20.5984 18.3594 21.2296 18.8599H16.094V15.7119H17.5578C18.7421 15.7119 19.1898 16.3504 19.8095 17.2342ZM12.3071 17.5443C12.9925 16.3628 13.3701 15.7119 14.7787 15.7119H15.0315V18.8599H11.4744C11.5045 18.8208 11.534 18.781 11.5629 18.7398C11.8574 18.3198 12.0963 17.9078 12.3071 17.5443ZM12.5193 25.9697C11.7445 25.9697 11.1141 25.3393 11.1141 24.5645C11.1141 23.7896 11.7445 23.1593 12.5193 23.1593C13.2941 23.1593 13.9245 23.7896 13.9245 24.5645C13.9245 25.3393 13.2941 25.9697 12.5193 25.9697ZM21.1514 25.9697C20.3766 25.9697 19.7462 25.3393 19.7462 24.5645C19.7462 23.7896 20.3766 23.1593 21.1514 23.1593C21.9262 23.1593 22.5566 23.7896 22.5566 24.5645C22.5566 25.3393 21.9262 25.9697 21.1514 25.9697ZM21.1514 22.0967C20.0797 22.0967 19.1658 22.7837 18.8258 23.7402H14.8451C14.505 22.7837 13.5911 22.0967 12.5194 22.0967C11.4478 22.0967 10.5339 22.7836 10.1938 23.7401H8.6453C8.55366 23.7398 8.47623 23.6624 8.47623 23.5706V21.7868C8.47623 20.9323 9.04015 20.1754 9.85422 19.9224H23.9628C25.2812 20.094 25.5241 20.6865 25.5241 21.7868V23.5706C25.5241 23.6625 25.4465 23.7402 25.3546 23.7402H23.4771C23.137 22.7837 22.2231 22.0967 21.1514 22.0967ZM31.5123 27.2374C31.0194 27.2374 30.6184 26.8364 30.6184 26.3434C30.6184 25.8505 31.0194 25.4495 31.5123 25.4495C32.0052 25.4495 32.4062 25.8505 32.4062 26.3434C32.4062 26.8364 32.0052 27.2374 31.5123 27.2374ZM33.1283 16.2341L30.7459 15.3171C30.4164 14.0448 29.9107 12.8248 29.2434 11.6926L30.2802 9.35804C30.3238 9.25993 30.3366 9.15091 30.317 9.04536C30.2974 8.93981 30.2463 8.84268 30.1704 8.76676L27.12 5.71645C27.0441 5.64054 26.9469 5.58941 26.8414 5.5698C26.7358 5.55019 26.6268 5.56303 26.5287 5.60662L24.1934 6.64382C23.0614 5.97679 21.8418 5.47118 20.5699 5.14164L19.6527 2.75852C19.6141 2.65833 19.5461 2.57218 19.4576 2.51141C19.3691 2.45065 19.2642 2.41812 19.1569 2.41812H14.8431C14.7358 2.41812 14.6309 2.45065 14.5424 2.51141C14.4539 2.57218 14.3859 2.65833 14.3473 2.75852L13.4303 5.14091C12.158 5.47045 10.9381 5.97621 9.80581 6.64348L7.47123 5.60662C7.37312 5.56303 7.26411 5.55019 7.15855 5.5698C7.053 5.58941 6.95587 5.64054 6.87995 5.71645L3.82965 8.76682C3.75374 8.84274 3.70261 8.93988 3.68301 9.04543C3.6634 9.15098 3.67623 9.25999 3.71981 9.35811L4.75701 11.6935C4.09002 12.8255 3.58439 14.045 3.25477 15.3169L0.871648 16.2341C0.771464 16.2727 0.685318 16.3408 0.624556 16.4293C0.563793 16.5178 0.531263 16.6226 0.53125 16.73V21.0437C0.53125 21.1846 0.587221 21.3197 0.68685 21.4193C0.786478 21.519 0.921604 21.5749 1.0625 21.5749H6.28163C6.36025 21.5749 6.43789 21.5575 6.50895 21.5239C6.58 21.4902 6.64271 21.4413 6.69255 21.3805C6.74239 21.3197 6.77811 21.2485 6.79714 21.1723C6.81617 21.096 6.81803 21.0164 6.80259 20.9394C6.66765 20.2635 6.59967 19.576 6.59965 18.8869C6.59965 13.1521 11.2652 8.48652 17 8.48652C22.7348 8.48652 27.4003 13.1521 27.4003 18.8869C27.4004 19.576 27.3324 20.2635 27.1974 20.9394C27.182 21.0164 27.1839 21.096 27.203 21.1722C27.222 21.2485 27.2577 21.3196 27.3076 21.3804C27.3574 21.4411 27.4201 21.4901 27.4911 21.5238C27.5622 21.5574 27.6398 21.5749 27.7184 21.5749H32.9375C33.0784 21.5749 33.2135 21.519 33.3132 21.4193C33.4128 21.3197 33.4688 21.1846 33.4688 21.0437V16.7299C33.4687 16.6226 33.4362 16.5177 33.3755 16.4292C33.3147 16.3407 33.2285 16.2727 33.1283 16.2341ZM32.4062 20.5124H28.3479C28.4244 19.974 28.4628 19.4308 28.4628 18.8869C28.4628 12.5662 23.3206 7.42402 17 7.42402C10.6794 7.42402 5.53715 12.5663 5.53715 18.8869C5.53715 19.4305 5.57573 19.9749 5.6521 20.5125H1.59375V17.0948L3.89446 16.2092C3.97498 16.1783 4.04673 16.1281 4.10352 16.0632C4.16031 15.9982 4.20042 15.9204 4.22038 15.8365C4.54219 14.4844 5.07789 13.1923 5.80723 12.0092C5.85245 11.9357 5.87911 11.8523 5.88488 11.7662C5.89065 11.6801 5.87537 11.5939 5.84036 11.515L4.83896 9.26029L7.37335 6.72583L9.62731 7.7269C9.70619 7.76193 9.79241 7.77721 9.87852 7.77143C9.96463 7.76564 10.048 7.73896 10.1215 7.6937C11.3049 6.96413 12.5972 6.4284 13.9497 6.10679C14.0336 6.08681 14.1115 6.04669 14.1764 5.98989C14.2414 5.93309 14.2915 5.86133 14.3225 5.7808L15.2078 3.48075H18.792L19.6776 5.78146C19.7086 5.86199 19.7588 5.93376 19.8237 5.99055C19.8887 6.04733 19.9665 6.08744 20.0504 6.10739C21.4026 6.42912 22.6946 6.9648 23.8778 7.69416C23.9512 7.73942 24.0346 7.76609 24.1207 7.77187C24.2068 7.77764 24.293 7.76234 24.3719 7.7273L26.6266 6.72589L29.161 9.26029L28.16 11.5143C28.125 11.5931 28.1097 11.6793 28.1155 11.7655C28.1213 11.8516 28.148 11.935 28.1932 12.0084C28.9228 13.1918 29.4585 14.4842 29.7801 15.8366C29.8001 15.9206 29.8402 15.9984 29.897 16.0633C29.9538 16.1283 30.0255 16.1784 30.1061 16.2094L32.4062 17.0947V20.5124ZM17.6462 21.0956C17.6462 21.2365 17.5902 21.3716 17.4906 21.4713C17.391 21.5709 17.2558 21.6269 17.1149 21.6269H16.4048C16.2639 21.6269 16.1288 21.5709 16.0292 21.4713C15.9295 21.3716 15.8736 21.2365 15.8736 21.0956C15.8736 20.9547 15.9295 20.8196 16.0292 20.72C16.1288 20.6203 16.2639 20.5644 16.4048 20.5644H17.1149C17.2558 20.5644 17.391 20.6203 17.4906 20.72C17.5902 20.8196 17.6462 20.9547 17.6462 21.0956Z" fill="#064EE3"/>
</svg>
