<svg width="34" height="34" viewBox="0 0 34 34" fill="none" xmlns="http://www.w3.org/2000/svg">
<g clip-path="url(#clip0_194_130)">
<path d="M33.15 33.5211C33.0969 33.5211 33.0438 33.5211 32.9375 33.468C22.3125 27.7836 11.5813 27.7836 1.11562 33.468C0.903125 33.5742 0.690625 33.5211 0.584375 33.3086C0.478125 33.0961 0.53125 32.8836 0.74375 32.7773C11.475 26.9336 22.4188 26.9336 33.3094 32.7773C33.5219 32.8836 33.575 33.0961 33.4688 33.3086C33.4156 33.468 33.2563 33.5211 33.15 33.5211ZM17 13.3867H16.4156C13.7594 13.3867 11.5812 11.2086 11.5812 8.55234V7.96797C11.5812 7.75547 11.7406 7.54297 12.0063 7.54297H12.5906C15.2469 7.54297 17.425 9.72109 17.425 12.3773V12.9617C17.425 13.2273 17.2125 13.3867 17 13.3867ZM12.3781 8.39297V8.55234C12.3781 10.7836 14.1844 12.5898 16.4156 12.5898H16.575V12.4305C16.575 10.1992 14.7688 8.39297 12.5375 8.39297H12.3781ZM17 19.1242H16.4156C13.7594 19.1242 11.5812 16.9461 11.5812 14.2898V13.7055C11.5812 13.493 11.7406 13.2805 12.0063 13.2805H12.5906C15.2469 13.2805 17.425 15.4586 17.425 18.1148V18.6992C17.425 18.9117 17.2125 19.1242 17 19.1242ZM12.3781 14.0773V14.2367C12.3781 16.468 14.1844 18.2742 16.4156 18.2742H16.575V18.1148C16.575 15.8836 14.7688 14.0773 12.5375 14.0773H12.3781ZM17 24.7555H16.4156C13.7594 24.7555 11.5812 22.5773 11.5812 19.9211V19.3367C11.5812 19.1242 11.7406 18.9117 12.0063 18.9117H12.5906C15.2469 18.9117 17.425 21.0898 17.425 23.7461V24.3305C17.425 24.5961 17.2125 24.7555 17 24.7555ZM12.3781 19.7617V19.9211C12.3781 22.1523 14.1844 23.9586 16.4156 23.9586H16.575V23.7992C16.575 21.568 14.7688 19.7617 12.5375 19.7617H12.3781Z" fill="#064EE3"/>
<path d="M17.5844 13.3871H17C16.7875 13.3871 16.575 13.2277 16.575 12.9621V12.3777C16.575 9.72148 18.7531 7.54336 21.4094 7.54336H21.9938C22.2063 7.54336 22.4187 7.70273 22.4187 7.96836V8.55273C22.4187 11.209 20.2406 13.3871 17.5844 13.3871ZM17.425 12.5902H17.5844C19.8156 12.5902 21.6219 10.784 21.6219 8.55273V8.39336H21.4625C19.2313 8.39336 17.425 10.1996 17.425 12.4309V12.5902ZM17.5844 19.1246H17C16.7875 19.1246 16.575 18.9652 16.575 18.6996V18.1152C16.575 15.459 18.7531 13.2809 21.4094 13.2809H21.9938C22.2063 13.2809 22.4187 13.4402 22.4187 13.7059V14.2902C22.4187 16.9465 20.2406 19.1246 17.5844 19.1246ZM17.425 18.3277H17.5844C19.8156 18.3277 21.6219 16.5215 21.6219 14.2902V14.1309H21.4625C19.2313 14.1309 17.425 15.9371 17.425 18.1684V18.3277ZM17.5844 24.7559H17C16.7875 24.7559 16.575 24.5965 16.575 24.3309V23.7465C16.575 21.0902 18.7531 18.9121 21.4094 18.9121H21.9938C22.2063 18.9121 22.4187 19.0715 22.4187 19.3371V19.9215C22.4187 22.5777 20.2406 24.7559 17.5844 24.7559ZM17.425 23.959H17.5844C19.8156 23.959 21.6219 22.1527 21.6219 19.9215V19.7621H21.4625C19.2313 19.7621 17.425 21.5684 17.425 23.7996V23.959ZM17 8.44648C16.8937 8.44648 16.7875 8.39336 16.7344 8.34023L16.3094 7.91523C14.3969 6.00273 14.3969 2.97461 16.3094 1.06211L16.7344 0.637109C16.8937 0.477734 17.1062 0.477734 17.2656 0.637109L17.6906 1.00898C19.55 2.92148 19.55 5.94961 17.7438 7.91523L17.3187 8.34023C17.2125 8.39336 17.1062 8.44648 17 8.44648ZM17 1.48711L16.8406 1.64648C15.2469 3.24023 15.2469 5.79023 16.8406 7.38398L16.9469 7.49023L17.0531 7.38398C18.5937 5.73711 18.5937 3.18711 17.0531 1.59336L17 1.48711Z" fill="#064EE3"/>
<path d="M17 29.1648C16.7875 29.1648 16.575 29.0055 16.575 28.7398V7.96797C16.575 7.75547 16.7344 7.54297 17 7.54297C17.2656 7.54297 17.425 7.70234 17.425 7.96797V28.7398C17.425 28.9523 17.2125 29.1648 17 29.1648ZM5.95 16.6805H5.36563C2.70938 16.6805 0.53125 14.5023 0.53125 11.8461V11.2617C0.53125 11.0492 0.690625 10.8367 0.95625 10.8367H1.4875C4.09063 10.8367 6.21562 12.9086 6.32187 15.4586C6.375 15.5117 6.375 15.5648 6.375 15.618V16.2023C6.32188 16.5211 6.1625 16.6805 5.95 16.6805ZM1.32812 11.6867V11.8461C1.32812 14.0773 3.13438 15.8836 5.36563 15.8836H5.525C5.47187 15.8305 5.47188 15.7773 5.47188 15.7242C5.47188 13.493 3.66562 11.6867 1.43438 11.6867H1.32812ZM5.95 22.418H5.36563C2.70938 22.418 0.53125 20.2398 0.53125 17.5836V16.9992C0.53125 16.7867 0.690625 16.5742 0.95625 16.5742H1.4875C4.09063 16.5742 6.21562 18.6461 6.32187 21.1961C6.375 21.2492 6.375 21.3023 6.375 21.3555V21.9398C6.32188 22.2055 6.1625 22.418 5.95 22.418ZM1.32812 17.4242V17.5836C1.32812 19.8148 3.13438 21.6211 5.36563 21.6211H5.525C5.47187 21.568 5.47188 21.5148 5.47188 21.4617C5.47188 19.2305 3.66562 17.4242 1.43438 17.4242H1.32812ZM5.95 28.1023H5.36563C2.70938 28.1023 0.53125 25.9242 0.53125 23.268V22.6836C0.53125 22.4711 0.690625 22.3117 0.903125 22.3117H1.43438C4.0375 22.3117 6.1625 24.3836 6.26875 26.9336C6.32188 26.9867 6.32187 27.0398 6.32187 27.093V27.6773C6.32187 27.943 6.1625 28.1023 5.95 28.1023ZM1.32812 23.1086V23.268C1.32812 25.4992 3.13438 27.3055 5.36563 27.3055H5.525C5.47187 27.2523 5.47188 27.1992 5.47188 27.1461C5.47188 24.9148 3.66562 23.1086 1.43438 23.1086H1.32812Z" fill="#064EE3"/>
<path d="M6.42813 16.6809H5.84375C5.63125 16.6809 5.41875 16.5215 5.41875 16.2559V15.6715C5.41875 13.0152 7.59687 10.8371 10.2531 10.8371H10.8375C11.05 10.8371 11.2625 10.9965 11.2625 11.2621V11.8465C11.2625 14.5027 9.08438 16.6809 6.42813 16.6809ZM6.26875 15.884H6.42813C8.65938 15.884 10.4656 14.0777 10.4656 11.8465V11.6871H10.3062C8.075 11.6871 6.26875 13.4934 6.26875 15.7246V15.884ZM6.42813 22.4184H5.84375C5.63125 22.4184 5.41875 22.259 5.41875 21.9934V21.409C5.41875 18.7527 7.59687 16.5746 10.2531 16.5746H10.8375C11.05 16.5746 11.2625 16.734 11.2625 16.9996V17.584C11.2625 20.2402 9.08438 22.4184 6.42813 22.4184ZM6.26875 21.6215H6.42813C8.65938 21.6215 10.4656 19.8152 10.4656 17.584V17.4246H10.3062C8.075 17.4246 6.26875 19.2309 6.26875 21.4621V21.6215ZM6.42813 28.1027H5.84375C5.63125 28.1027 5.41875 27.9434 5.41875 27.6777V27.0934C5.41875 24.4371 7.59687 22.259 10.2531 22.259H10.8375C11.05 22.259 11.2625 22.4184 11.2625 22.684V23.2684C11.2625 25.9246 9.08438 28.1027 6.42813 28.1027ZM6.26875 27.3059H6.42813C8.65938 27.3059 10.4656 25.4996 10.4656 23.2684V23.109H10.3062C8.075 23.109 6.26875 24.9152 6.26875 27.1465V27.3059ZM5.89688 11.6871C5.79063 11.6871 5.68438 11.634 5.63125 11.5809L5.15312 11.1559C3.24062 9.24336 3.24062 6.21523 5.15312 4.30273L5.57812 3.87773C5.63125 3.82461 5.7375 3.77148 5.84375 3.77148C5.95 3.77148 6.05625 3.82461 6.10938 3.87773L6.53438 4.30273C7.49063 5.25898 7.96875 6.48086 7.96875 7.75586C7.96875 9.03086 7.4375 10.2527 6.53438 11.1027L6.10938 11.5277C6.05625 11.634 6.00313 11.6871 5.89688 11.6871ZM5.89688 4.72773L5.79062 4.83398C4.19687 6.42773 4.19687 8.97773 5.79062 10.5715L5.89688 10.6777L6.00313 10.5715C6.74688 9.82773 7.17188 8.81836 7.225 7.75586C7.225 6.64023 6.8 5.63086 6.00313 4.83398L5.89688 4.72773Z" fill="#064EE3"/>
<path d="M5.89692 31.0785C5.68442 31.0785 5.47192 30.9191 5.47192 30.6535V11.2629C5.47192 11.0504 5.6313 10.8379 5.89692 10.8379C6.16255 10.8379 6.32192 10.9973 6.32192 11.2629V30.7066C6.2688 30.9191 6.10942 31.0785 5.89692 31.0785ZM28.1032 16.6816H27.5188C24.8625 16.6816 22.6844 14.5035 22.6844 11.8473V11.2629C22.6844 11.0504 22.8438 10.8379 23.1094 10.8379H23.6938C26.35 10.8379 28.5282 13.016 28.5282 15.6723V16.2566C28.5282 16.5223 28.3688 16.6816 28.1032 16.6816ZM23.5344 11.6879V11.8473C23.5344 14.0785 25.3407 15.8848 27.5719 15.8848H27.7313V15.7254C27.7313 13.4941 25.925 11.6879 23.6938 11.6879H23.5344ZM28.1032 22.4191H27.5188C24.8625 22.4191 22.6844 20.241 22.6844 17.5848V17.0004C22.6844 16.7879 22.8438 16.5754 23.1094 16.5754H23.6938C26.35 16.5754 28.5282 18.7535 28.5282 21.4098V21.9941C28.5282 22.2066 28.3688 22.4191 28.1032 22.4191ZM23.5344 17.4254V17.5848C23.5344 19.816 25.3407 21.6223 27.5719 21.6223H27.7313V21.4629C27.7313 19.2316 25.925 17.4254 23.6938 17.4254H23.5344ZM28.1032 28.1035H27.5188C24.8625 28.1035 22.6844 25.9254 22.6844 23.2691V22.6848C22.6844 22.4723 22.8438 22.2598 23.1094 22.2598H23.6938C26.35 22.2598 28.5282 24.4379 28.5282 27.0941V27.6785C28.5282 27.9441 28.3688 28.1035 28.1032 28.1035ZM23.5344 23.1098V23.2691C23.5344 25.5004 25.3407 27.3066 27.5719 27.3066H27.7313V27.1473C27.7313 24.916 25.925 23.1098 23.6938 23.1098H23.5344Z" fill="#064EE3"/>
<path d="M28.6875 16.6809H28.1032C27.8907 16.6809 27.6782 16.5215 27.6782 16.2559V15.6715C27.6782 13.0152 29.8563 10.8371 32.5125 10.8371H33.0969C33.3094 10.8371 33.5219 10.9965 33.5219 11.2621V11.8465C33.5219 14.5027 31.3438 16.6809 28.6875 16.6809ZM28.5282 15.884H28.6875C30.9188 15.884 32.725 14.0777 32.725 11.8465V11.6871H32.5657C30.3344 11.6871 28.5282 13.4934 28.5282 15.7246V15.884ZM28.6875 22.4184H28.1032C27.8907 22.4184 27.6782 22.259 27.6782 21.9934V21.409C27.6782 18.7527 29.8563 16.5746 32.5125 16.5746H33.0969C33.3094 16.5746 33.5219 16.734 33.5219 16.9996V17.584C33.5219 20.2402 31.3438 22.4184 28.6875 22.4184ZM28.5282 21.6215H28.6875C30.9188 21.6215 32.725 19.8152 32.725 17.584V17.4246H32.5657C30.3344 17.4246 28.5282 19.2309 28.5282 21.4621V21.6215ZM28.6875 28.1027H28.1032C27.8907 28.1027 27.6782 27.9434 27.6782 27.6777V27.0934C27.6782 24.4371 29.8563 22.259 32.5125 22.259H33.0969C33.3094 22.259 33.5219 22.4184 33.5219 22.684V23.2684C33.5219 25.9246 31.3438 28.1027 28.6875 28.1027ZM28.5282 27.3059H28.6875C30.9188 27.3059 32.725 25.4996 32.725 23.2684V23.109H32.5657C30.3344 23.109 28.5282 24.9152 28.5282 27.1465V27.3059ZM28.05 11.6871C27.9438 11.6871 27.8375 11.634 27.7844 11.5809L27.3594 11.1559C25.4469 9.24336 25.4469 6.21523 27.3594 4.30273L27.7844 3.87773C27.8375 3.82461 27.9438 3.77148 28.05 3.77148C28.1563 3.77148 28.2625 3.82461 28.3157 3.87773L28.7407 4.30273C29.6969 5.25898 30.175 6.48086 30.175 7.75586C30.175 9.03086 29.6438 10.2527 28.7407 11.1027L28.3157 11.5277C28.2625 11.634 28.1563 11.6871 28.05 11.6871ZM28.05 4.72773L27.9438 4.83398C26.35 6.42773 26.35 8.97773 27.9438 10.5715L28.05 10.6777L28.1563 10.5715C28.9 9.82773 29.325 8.81836 29.3782 7.75586C29.3782 6.64023 28.9532 5.63086 28.1563 4.83398L28.05 4.72773Z" fill="#064EE3"/>
<path d="M28.1032 31.0785C27.8907 31.0785 27.6782 30.9191 27.6782 30.6535V11.2629C27.6782 11.0504 27.8376 10.8379 28.1032 10.8379C28.3688 10.8379 28.5282 10.9973 28.5282 11.2629V30.7066C28.5282 30.9191 28.3688 31.0785 28.1032 31.0785Z" fill="#064EE3"/>
</g>
<defs>
<clipPath id="clip0_194_130">
<rect width="34" height="34" fill="white"/>
</clipPath>
</defs>
</svg>
