<svg width="24" height="24" viewBox="0 0 24 24" fill="none" xmlns="http://www.w3.org/2000/svg">
<g clip-path="url(#clip0_194_48)">
<g clip-path="url(#clip1_194_48)">
<mask id="mask0_194_48" style="mask-type:luminance" maskUnits="userSpaceOnUse" x="0" y="0" width="24" height="24">
<path d="M23.424 0.480469H0.384033V23.5205H23.424V0.480469Z" fill="white"/>
</mask>
<g mask="url(#mask0_194_48)">
<path d="M1.34399 12.0006C1.34399 12.0006 5.18399 4.32056 11.904 4.32056C18.624 4.32056 22.464 12.0006 22.464 12.0006C22.464 12.0006 18.624 19.6806 11.904 19.6806C5.18399 19.6806 1.34399 12.0006 1.34399 12.0006Z" stroke="#064EE3" stroke-width="1.44" stroke-linecap="round" stroke-linejoin="round"/>
<path d="M11.9037 14.8813C13.4943 14.8813 14.7837 13.592 14.7837 12.0013C14.7837 10.4107 13.4943 9.12134 11.9037 9.12134C10.3131 9.12134 9.02368 10.4107 9.02368 12.0013C9.02368 13.592 10.3131 14.8813 11.9037 14.8813Z" stroke="#064EE3" stroke-width="1.44" stroke-linecap="round" stroke-linejoin="round"/>
</g>
</g>
</g>
<defs>
<clipPath id="clip0_194_48">
<rect width="24" height="24" fill="white"/>
</clipPath>
<clipPath id="clip1_194_48">
<rect width="24" height="23.04" fill="white" transform="translate(0 0.480469)"/>
</clipPath>
</defs>
</svg>
