<svg width="34" height="34" viewBox="0 0 34 34" fill="none" xmlns="http://www.w3.org/2000/svg">
<path d="M22.6667 12.8888L11.3333 19.9722V8.5H12.75V7.08333H0V8.5H1.41667V30.4583C1.41667 32.4119 3.00617 34 4.95833 34H30.4583C32.4105 34 34 32.4119 34 30.4583V12.8888L22.6667 19.9722V12.8888ZM32.5833 15.4445V30.4583C32.5833 31.6299 31.6299 32.5833 30.4583 32.5833H4.95833C3.78675 32.5833 2.83333 31.6299 2.83333 30.4583V8.5H9.91667V28.3333H11.3333V21.6424L21.25 15.4445V22.5278L32.5833 15.4445ZM13.3039 5.02917C13.8692 5.27708 14.3636 5.75025 14.8127 6.47983C15.7179 7.94892 17.323 8.78617 19.1491 8.42633C20.4737 9.77642 22.4938 10.2822 24.3086 9.62483C25.3753 10.7171 26.8147 11.3333 28.3333 11.3333C31.4585 11.3333 34 8.79183 34 5.66667C34 2.5415 31.4585 0 28.3333 0C27.2935 0 26.2891 0.287583 25.3952 0.838667C23.919 -0.155833 21.9753 -0.262083 20.3915 0.561C19.7157 0.192667 18.9706 0 18.2141 0H16.5084C14.4061 0 11.1704 1.14467 9.39533 3.06L8.3555 4.18342L9.8855 4.25C11.2356 4.30808 12.0983 4.505 13.3039 5.02917ZM16.5098 1.41667H18.2155C18.9918 1.39683 19.7469 1.76233 20.3745 2.22983C21.8847 1.037 24.0153 1.22825 25.3527 2.61233C26.1984 1.904 27.2354 1.394 28.3333 1.41667C30.6765 1.41667 32.5833 3.3235 32.5833 5.66667C32.5833 8.00983 30.6765 9.91667 28.3333 9.91667C26.8614 9.94075 25.5425 9.09783 24.6968 7.89508C22.9528 8.98308 20.7556 8.50142 19.6449 6.82833C19.2766 6.936 18.7567 7.0975 18.4167 7.08333C17.4349 7.08333 16.5382 6.58042 16.0197 5.7375C15.4133 4.75292 14.7107 4.097 13.8706 3.7315C13.0773 3.38583 12.3845 3.16058 11.6422 3.01892C13.1651 2.00883 15.1541 1.41667 16.5098 1.41667ZM14.1667 28.3333H18.4167V22.6667H14.1667V28.3333ZM15.5833 24.0833H17V26.9167H15.5833V24.0833ZM29.75 22.6667H25.5V28.3333H29.75V22.6667ZM28.3333 26.9167H26.9167V24.0833H28.3333V26.9167Z" fill="#064EE3"/>
</svg>
