<svg width="34" height="34" viewBox="0 0 34 34" fill="none" xmlns="http://www.w3.org/2000/svg">
<path fill-rule="evenodd" clip-rule="evenodd" d="M25.9973 31.0901V32.6055C25.9973 32.8253 25.8187 33.0039 25.5989 33.0039C25.3791 33.0039 25.2004 32.8253 25.2004 32.6055V31.0901C25.2004 28.0035 22.6896 25.4927 19.603 25.4927H19.4855C19.2531 25.4927 19.0605 25.5737 18.8978 25.7397C18.3945 26.2537 17.7204 26.5366 17.0006 26.5366C16.2807 26.5366 15.6074 26.2537 15.1034 25.7397C14.9407 25.5737 14.7481 25.4927 14.5157 25.4927H14.3981C11.3116 25.4927 8.80074 28.0035 8.80074 31.0901V32.6055C8.80074 32.8253 8.62211 33.0039 8.4023 33.0039C8.1825 33.0039 8.00387 32.8253 8.00387 32.6055V31.0901C8.00387 27.5639 10.8726 24.6958 14.3981 24.6958H14.5157C14.9613 24.6958 15.361 24.8638 15.6731 25.1819C16.0257 25.5418 16.4972 25.7397 17.0013 25.7397C17.5046 25.7397 17.9768 25.5418 18.3294 25.1819C18.6408 24.8638 19.0413 24.6958 19.4868 24.6958H19.6044C23.1286 24.6952 25.9973 27.5639 25.9973 31.0901ZM11.8275 29.5441C11.6077 29.5441 11.4291 29.7228 11.4291 29.9426V32.6055C11.4291 32.8253 11.6077 33.0039 11.8275 33.0039C12.0473 33.0039 12.226 32.8253 12.226 32.6055V29.9426C12.226 29.7221 12.0473 29.5441 11.8275 29.5441ZM22.1723 29.5441C21.9525 29.5441 21.7739 29.7228 21.7739 29.9426V32.6055C21.7739 32.8253 21.9525 33.0039 22.1723 33.0039C22.3921 33.0039 22.5707 32.8253 22.5707 32.6055V29.9426C22.5707 29.7221 22.3921 29.5441 22.1723 29.5441ZM22.3994 18.4676C22.3994 21.4446 19.9776 23.8671 16.9999 23.8671C14.0223 23.8671 11.6004 21.4452 11.6004 18.4676C11.6004 15.4899 14.0223 13.0681 16.9999 13.0681C19.9776 13.0681 22.3994 15.4906 22.3994 18.4676ZM21.6025 18.4676C21.6025 15.9295 19.538 13.865 16.9999 13.865C14.4619 13.865 12.3973 15.9295 12.3973 18.4676C12.3973 21.0056 14.4619 23.0702 16.9999 23.0702C19.538 23.0702 21.6025 21.0056 21.6025 18.4676ZM32.1306 27.2033C31.6332 28.0646 30.7274 28.5474 29.7977 28.5474C29.3422 28.5474 28.8807 28.4318 28.4583 28.1875C27.2916 27.5141 26.8207 26.0923 27.3009 24.8751L23.2926 22.5609C23.2011 22.5079 23.1344 22.4209 23.107 22.3188C23.0796 22.2167 23.0938 22.1079 23.1465 22.0163C23.1994 21.9249 23.2865 21.8581 23.3886 21.8307C23.4906 21.8033 23.5994 21.8176 23.691 21.8702L27.6993 24.1845C28.5134 23.1605 29.9804 22.857 31.1471 23.5304C32.4301 24.2721 32.8717 25.9197 32.1306 27.2033ZM30.748 24.221C30.4616 24.0553 30.1366 23.968 29.8057 23.968C29.1516 23.968 28.5148 24.3073 28.1648 24.913V24.9136C28.1648 24.9136 28.1648 24.9143 28.1641 24.9143C27.6429 25.8174 27.9536 26.9762 28.8568 27.4975C29.7599 28.0188 30.9193 27.7087 31.4406 26.8049C31.9619 25.9018 31.6511 24.7423 30.748 24.221ZM1.86926 9.73184C2.22852 9.10961 2.80824 8.66535 3.50152 8.47941C4.1948 8.29348 4.91996 8.3891 5.54152 8.74769C6.70828 9.42105 7.1791 10.8428 6.69898 12.06L10.7073 14.3743C10.7987 14.4272 10.8655 14.5143 10.8929 14.6164C10.9202 14.7184 10.906 14.8272 10.8534 14.9188C10.7796 15.0463 10.6455 15.118 10.508 15.118C10.4403 15.118 10.3719 15.1008 10.3095 15.0649L6.30055 12.75C5.78125 13.4034 4.99633 13.764 4.19348 13.764C3.73793 13.764 3.27641 13.6485 2.85406 13.4041C1.56977 12.663 1.12816 11.0155 1.86926 9.73184ZM3.25184 12.7141C4.15496 13.2354 5.31375 12.9253 5.8357 12.0222C6.35699 11.1191 6.04621 9.96027 5.14309 9.43832C4.70547 9.18531 4.19547 9.11824 3.70738 9.24906C3.2193 9.37988 2.81156 9.69266 2.55855 10.1303C2.03793 11.0334 2.34871 12.1929 3.25184 12.7141ZM6.69965 24.8745C6.91082 25.407 6.94535 25.9914 6.79395 26.5552C6.60801 27.2491 6.16309 27.8289 5.54152 28.1875C5.13449 28.4232 4.67247 28.5473 4.20211 28.5474C3.27242 28.5474 2.36664 28.0653 1.86926 27.204C1.51 26.5818 1.41504 25.8573 1.60098 25.164C1.78691 24.47 2.23184 23.8903 2.8534 23.5317C3.47563 23.1725 4.20012 23.0775 4.8934 23.2634C5.45719 23.4142 5.94527 23.7362 6.30121 24.1858L10.3088 21.8722C10.4994 21.762 10.7431 21.8277 10.8534 22.0183C10.9636 22.2089 10.8979 22.4526 10.7073 22.5629L6.69965 24.8745ZM5.8357 24.913C5.58336 24.4754 5.17496 24.1626 4.68688 24.0318C4.19879 23.9009 3.68879 23.968 3.25117 24.221C2.34805 24.7423 2.03727 25.9018 2.55855 26.8049C3.07984 27.708 4.2393 28.0188 5.14242 27.4975C5.58004 27.2452 5.89281 26.8368 6.02363 26.3487C6.15578 25.8606 6.08805 25.3506 5.8357 24.913ZM23.1465 14.9188C23.0363 14.7282 23.102 14.4845 23.2926 14.3743L27.3009 12.06C26.8207 10.8428 27.2916 9.42105 28.4583 8.74769C29.742 8.0066 31.3895 8.4482 32.1306 9.73184C32.8717 11.0155 32.4301 12.663 31.1464 13.4041C30.7321 13.6432 30.2725 13.7654 29.8064 13.7654C29.5726 13.7654 29.3375 13.7348 29.1064 13.6724C28.5427 13.5216 28.0546 13.1996 27.6986 12.75L23.691 15.0636C23.6286 15.1001 23.5595 15.1167 23.4925 15.1167C23.4224 15.1174 23.3535 15.0994 23.2927 15.0646C23.2319 15.0298 23.1814 14.9795 23.1465 14.9188ZM28.1641 12.0215C28.1641 12.0222 28.1641 12.0222 28.1641 12.0215C28.4171 12.4598 28.8249 12.7726 29.313 12.9034C29.8011 13.0342 30.3111 12.9671 30.748 12.7141C31.6511 12.1929 31.9619 11.0334 31.4406 10.1303C31.0907 9.52398 30.4538 9.18465 29.7991 9.18465C29.4783 9.18465 29.1536 9.26633 28.8568 9.43766C27.9536 9.95961 27.6429 11.1184 28.1641 12.0215ZM24.1512 8.3207L25.7204 9.33605C25.7875 9.37922 25.8625 9.39981 25.9362 9.39981C26.067 9.39981 26.1952 9.33539 26.2709 9.21785C26.3904 9.03324 26.3373 8.78621 26.1527 8.66668L24.5835 7.65133C24.3989 7.5318 24.1519 7.58492 24.0323 7.76953C23.9135 7.95414 23.9659 8.20117 24.1512 8.3207ZM8.11875 9.34801C8.1918 9.34801 8.26617 9.32742 8.33258 9.28559L9.90773 8.27953C10.093 8.16133 10.1475 7.91496 10.0293 7.72902C9.91106 7.54375 9.66469 7.4893 9.47875 7.6075L7.90359 8.61355C7.71832 8.73176 7.66387 8.97813 7.78207 9.16406C7.81826 9.2205 7.86806 9.26693 7.9269 9.29907C7.98573 9.33121 8.05171 9.34804 8.11875 9.34801ZM3.79902 16.1062V20.8283C3.79902 21.0481 3.97766 21.2268 4.19746 21.2268C4.41727 21.2268 4.5959 21.0481 4.5959 20.8283V16.1062C4.5959 15.8864 4.41727 15.7077 4.19746 15.7077C3.97766 15.7077 3.79902 15.8864 3.79902 16.1062ZM29.5388 15.7011C29.3189 15.7071 29.145 15.8897 29.1509 16.1095L29.2738 20.8403C29.2791 21.0568 29.4564 21.2281 29.6722 21.2281H29.6829C29.9027 21.2221 30.0766 21.0395 30.0707 20.8197L29.9478 16.0889C29.9465 16.0366 29.9348 15.985 29.9136 15.9372C29.8923 15.8893 29.8618 15.8461 29.8238 15.8101C29.7858 15.7741 29.741 15.7459 29.6921 15.7272C29.6432 15.7085 29.5911 15.6996 29.5388 15.7011ZM11.3561 7.8107V2.31094C11.3561 1.58578 11.9457 0.996094 12.6709 0.996094H21.3289C22.0541 0.996094 22.6438 1.58578 22.6438 2.31094V7.8107C22.6438 8.53586 22.0541 9.12555 21.3289 9.12555H18.2948L17.4528 10.9584C17.3877 11.0998 17.2463 11.1908 17.0909 11.1908C16.9355 11.1908 16.7941 11.0998 16.729 10.9584L15.887 9.12555H12.6709C11.9457 9.12555 11.3561 8.53586 11.3561 7.8107ZM12.1529 7.8107C12.1529 8.09625 12.3854 8.32867 12.6709 8.32867H16.142C16.2973 8.32867 16.4388 8.41965 16.5039 8.56109L17.0902 9.83809L17.6766 8.56109C17.7417 8.41965 17.8831 8.32867 18.0385 8.32867H21.3283C21.6138 8.32867 21.8463 8.09625 21.8463 7.8107V2.31094C21.8463 2.02539 21.6138 1.79297 21.3283 1.79297H12.6709C12.3854 1.79297 12.1529 2.02539 12.1529 2.31094V7.8107ZM14.5409 5.45926H14.5748C14.7946 5.45926 14.9732 5.28062 14.9732 5.06082C14.9732 4.84102 14.7946 4.66238 14.5748 4.66238H14.5409C14.3211 4.66238 14.1425 4.84102 14.1425 5.06082C14.1425 5.28129 14.3204 5.45926 14.5409 5.45926ZM16.9833 5.45926H17.0172C17.237 5.45926 17.4156 5.28062 17.4156 5.06082C17.4156 4.84102 17.237 4.66238 17.0172 4.66238H16.9833C16.7635 4.66238 16.5849 4.84102 16.5849 5.06082C16.5849 5.28129 16.7629 5.45926 16.9833 5.45926ZM19.4257 5.45926H19.4596C19.6794 5.45926 19.858 5.28062 19.858 5.06082C19.858 4.84102 19.6794 4.66238 19.4596 4.66238H19.4257C19.2059 4.66238 19.0273 4.84102 19.0273 5.06082C19.0273 5.28129 19.2053 5.45926 19.4257 5.45926Z" fill="#064EE3"/>
</svg>
