<svg width="32" height="32" viewBox="0 0 32 32" fill="none" xmlns="http://www.w3.org/2000/svg">
<path d="M32 28.6695C32 28.4106 31.7902 28.2008 31.5312 28.2008H31.1591L30.6509 24.3037L30.8617 24.1978C30.9402 24.1584 31.006 24.0978 31.0517 24.0228C31.0974 23.9479 31.1211 23.8616 31.1201 23.7738C31.1192 23.686 31.0936 23.6003 31.0463 23.5263C30.999 23.4523 30.9319 23.3932 30.8526 23.3555L30.5058 23.1908L30.0675 19.8304L30.4321 19.6573C30.5103 19.6202 30.5768 19.5621 30.624 19.4895C30.6712 19.4169 30.6974 19.3327 30.6997 19.2461C30.7019 19.1595 30.6802 19.074 30.6368 18.999C30.5934 18.9241 30.53 18.8626 30.4538 18.8215L29.8966 18.5203L29.4679 15.2328L30.0301 14.929C30.1024 14.8899 30.1632 14.8325 30.2064 14.7625C30.2495 14.6925 30.2734 14.6124 30.2758 14.5302C30.2782 14.448 30.259 14.3666 30.22 14.2943C30.181 14.2219 30.1237 14.161 30.0537 14.1178L29.2584 13.6262L28.8537 10.5229L29.3794 10.198C29.4421 10.1592 29.4948 10.1062 29.5331 10.0432C29.5715 9.98029 29.5945 9.90918 29.6002 9.83568C29.606 9.76217 29.5943 9.68835 29.5661 9.62022C29.538 9.55208 29.4941 9.49155 29.4382 9.44353L28.6214 8.74253L28.2052 5.55084H29.5874V6.55084H29.4616C29.2027 6.55084 28.9929 6.76066 28.9929 7.01959C28.9929 7.27853 29.2027 7.48834 29.4616 7.48834H30.6506C30.9096 7.48834 31.1194 7.27853 31.1194 7.01959C31.1194 6.76066 30.9096 6.55084 30.6506 6.55084H30.5248V5.08203C30.5248 4.82309 30.315 4.61328 30.0561 4.61328H28.0829L27.9079 3.27141C27.8932 3.15853 27.8379 3.05487 27.7523 2.97977C27.6668 2.90467 27.5568 2.86327 27.443 2.86328H23.8654C23.7515 2.86328 23.6416 2.90469 23.5561 2.97979C23.4705 3.05488 23.4152 3.15854 23.4005 3.27141L23.2255 4.61328H21.2525C21.1909 4.61327 21.13 4.62539 21.0731 4.64895C21.0162 4.6725 20.9646 4.70703 20.921 4.75056C20.8775 4.79409 20.843 4.84576 20.8194 4.90264C20.7959 4.95951 20.7837 5.02047 20.7838 5.08203V6.55078H20.658C20.3991 6.55078 20.1893 6.76059 20.1893 7.01953C20.1893 7.27847 20.3991 7.48828 20.658 7.48828H21.8469C22.1059 7.48828 22.3157 7.27847 22.3157 7.01953C22.3157 6.76059 22.1059 6.55078 21.8469 6.55078H21.7212V5.55078H23.1034L22.6871 8.74247L21.8704 9.44347C21.8145 9.4915 21.7707 9.55205 21.7425 9.62018C21.7144 9.68831 21.7027 9.76211 21.7085 9.8356C21.7142 9.90909 21.7372 9.9802 21.7755 10.0431C21.8139 10.1061 21.8665 10.1591 21.9292 10.1979L22.4549 10.5228L22.3534 11.3007H19.8878C18.0801 11.3007 16.6094 12.7714 16.6094 14.5791V17.5508H16.0949V14.832C16.0949 14.5731 15.8851 14.3633 15.6261 14.3633H13.1436V12.0091H13.2264C13.4853 12.0091 13.6952 11.7993 13.6952 11.5403C13.6952 11.2814 13.4853 11.0716 13.2264 11.0716H13.1436V9.36328H13.2264C13.4853 9.36328 13.6952 9.15347 13.6952 8.89453C13.6952 8.63559 13.4853 8.42578 13.2264 8.42578H13.1436V6.71747H13.2264C13.4853 6.71747 13.6952 6.50766 13.6952 6.24872C13.6952 5.98978 13.4853 5.77997 13.2264 5.77997H13.1436V3.80078H13.2264C13.4853 3.80078 13.6952 3.59097 13.6952 3.33203C13.6952 3.07309 13.4853 2.86328 13.2264 2.86328H9.19669C8.93781 2.86328 8.72794 3.07309 8.72794 3.33203C8.72794 3.59097 8.93781 3.80078 9.19669 3.80078H9.2795V5.77997H9.19669C8.93781 5.77997 8.72794 5.98978 8.72794 6.24872C8.72794 6.50766 8.93781 6.71747 9.19669 6.71747H9.2795V8.42578H9.19669C8.93781 8.42578 8.72794 8.63559 8.72794 8.89453C8.72794 9.15347 8.93781 9.36328 9.19669 9.36328H9.2795V11.0716H9.19669C8.93781 11.0716 8.72794 11.2814 8.72794 11.5403C8.72794 11.7993 8.93781 12.0091 9.19669 12.0091H9.2795V14.3633H7.65356C7.39469 14.3633 7.18481 14.5731 7.18481 14.832C7.18481 15.091 7.39469 15.3008 7.65356 15.3008H15.1573V28.2008H13.0598V25.5164C13.0598 24.6393 12.3463 23.9258 11.4692 23.9258H8.46294C7.58588 23.9258 6.87231 24.6393 6.87231 25.5164V28.2008H4.77481V15.3008H5.77856C6.03744 15.3008 6.24731 15.091 6.24731 14.832C6.24731 14.5731 6.03744 14.3633 5.77856 14.3633H4.30606C4.18174 14.3633 4.06251 14.4127 3.97461 14.5006C3.8867 14.5885 3.83731 14.7077 3.83731 14.832V21.3633H1.2525C1.12818 21.3633 1.00895 21.4127 0.921044 21.5006C0.833136 21.5885 0.78375 21.7077 0.78375 21.832V25.5945C0.78375 25.8535 0.993625 26.0633 1.2525 26.0633C1.51138 26.0633 1.72125 25.8535 1.72125 25.5945V22.3008H3.8375V28.2008H1.72125V27.4695C1.72125 27.2106 1.51138 27.0008 1.2525 27.0008C0.993625 27.0008 0.78375 27.2106 0.78375 27.4695V28.2008H0.46875C0.209875 28.2008 0 28.4106 0 28.6695C0 28.9285 0.209875 29.1383 0.46875 29.1383H31.5312C31.6556 29.1383 31.7748 29.0889 31.8627 29.001C31.9506 28.9131 32 28.7939 32 28.6695ZM10.2171 3.80078H12.2062V5.77997H10.2171V3.80078ZM10.2171 6.71747H12.2062V8.42578H10.2171V6.71747ZM10.2171 9.36328H12.2062V11.0716H10.2171V9.36328ZM10.2171 14.3633V12.0091H12.2062V14.3633H10.2171ZM28.4549 14.7145L25.6543 16.2278L22.8538 14.7145L22.9223 14.1893L25.6543 12.5005L28.3864 14.1893L28.4549 14.7145ZM24.6683 16.7607L22.4291 17.9707L22.7239 15.71L24.6683 16.7607ZM29.0497 19.2757L25.6543 20.8876L22.2589 19.2757L22.2796 19.1171L25.6543 17.2935L29.029 19.1171L29.0497 19.2757ZM24.5613 21.4065L21.8107 22.7123L22.1315 20.253L24.5613 21.4065ZM25.6543 21.9254L29.5831 23.7906L25.6543 25.7625L21.7255 23.7906L25.6543 21.9254ZM24.6094 26.2869L21.1159 28.0403L21.5452 24.749L24.6094 26.2869ZM25.6543 26.8114L28.4225 28.2008H22.8861L25.6543 26.8114ZM30.1928 28.0403L26.6993 26.2869L29.7635 24.749L30.1928 28.0403ZM29.4979 22.7123L26.7473 21.4065L29.1771 20.253L29.4979 22.7123ZM28.8795 17.9707L26.6403 16.7607L28.5847 15.71L28.8795 17.9707ZM28.2301 12.9905L26.5459 11.9494L27.9788 11.0637L28.2301 12.9905ZM23.5704 9.21984L25.6544 7.43109L27.7384 9.21984L27.8458 10.0437L25.6544 11.3983L23.4629 10.0437L23.5704 9.21984ZM26.3741 6.81334L27.3188 6.00247L27.5569 7.82859L26.3741 6.81334ZM25.6543 6.19559L24.9031 5.55078H26.4056L25.6543 6.19559ZM24.2771 3.80078H27.0316L27.1375 4.61328H24.1711L24.2771 3.80078ZM23.9899 6.00247L24.9346 6.81334L23.7518 7.82859L23.9899 6.00247ZM24.7628 11.9494L23.0786 12.9905L23.3299 11.0637L24.7628 11.9494ZM7.80994 28.2008V25.5164C7.80994 25.1562 8.10294 24.8633 8.46306 24.8633H11.4693C11.8294 24.8633 12.1224 25.1563 12.1224 25.5164V28.2008H7.80994ZM16.095 28.2008V18.4883H18.3558V20.3445C18.3558 20.6035 18.5656 20.8133 18.8246 20.8133C19.0835 20.8133 19.2933 20.6035 19.2933 20.3445V18.0195C19.2933 17.7606 19.0835 17.5508 18.8246 17.5508H17.5471V14.5792C17.5471 13.2884 18.5972 12.2383 19.8879 12.2383H22.2313L22.0502 13.6262L21.2549 14.1178C21.185 14.161 21.1276 14.2219 21.0887 14.2943C21.0497 14.3667 21.0305 14.448 21.0329 14.5302C21.0352 14.6124 21.0592 14.6925 21.1023 14.7624C21.1454 14.8324 21.2062 14.8899 21.2785 14.929L21.8407 15.2328L21.412 18.5203L20.8548 18.8215C20.7786 18.8626 20.7153 18.9241 20.6719 18.9991C20.6285 19.074 20.6068 19.1595 20.609 19.2461C20.6113 19.3327 20.6375 19.4169 20.6847 19.4895C20.7319 19.5621 20.7983 19.6202 20.8766 19.6573L21.2411 19.8304L20.8029 23.1908L20.4561 23.3555C20.3768 23.3932 20.3097 23.4523 20.2623 23.5263C20.215 23.6003 20.1895 23.686 20.1885 23.7738C20.1875 23.8616 20.2113 23.9479 20.2569 24.0228C20.3026 24.0978 20.3684 24.1584 20.4469 24.1978L20.6577 24.3037L20.1495 28.2008H19.2932V22.2195C19.2932 21.9606 19.0834 21.7508 18.8245 21.7508C18.5656 21.7508 18.3557 21.9606 18.3557 22.2195V28.2008H16.095Z" fill="#064EE3"/>
<path d="M9.00171 20.0768C9.09646 20.1573 9.21929 20.1968 9.3432 20.1867C9.4671 20.1767 9.58194 20.1178 9.66246 20.0231L10.9843 18.4672C11.0423 18.399 11.0795 18.3156 11.0916 18.227C11.1037 18.1383 11.0902 18.048 11.0526 17.9668C11.015 17.8856 10.955 17.8168 10.8796 17.7686C10.8042 17.7204 10.7166 17.6948 10.6271 17.6949H10.3498L10.9843 16.948C11.0648 16.8533 11.1043 16.7304 11.0943 16.6065C11.0842 16.4826 11.0253 16.3678 10.9306 16.2873C10.8358 16.2068 10.713 16.1672 10.589 16.1773C10.4651 16.1873 10.3503 16.2462 10.2698 16.341L8.97915 17.8601C8.92119 17.9283 8.88397 18.0116 8.87188 18.1003C8.85978 18.189 8.87332 18.2792 8.91089 18.3605C8.94845 18.4417 9.00849 18.5104 9.08389 18.5586C9.15929 18.6068 9.24691 18.6324 9.3364 18.6324H9.61371L8.9479 19.416C8.86742 19.5108 8.82788 19.6336 8.83797 19.7576C8.84807 19.8815 8.90696 19.9963 9.00171 20.0768Z" fill="#064EE3"/>
</svg>
